<svg xmlns="http://www.w3.org/2000/svg" version="1.1" xmlns:xlink="http://www.w3.org/1999/xlink" xmlns:svgjs="http://svgjs.dev/svgjs" width="1024" height="960" preserveAspectRatio="none" viewBox="0 0 1024 960"><g mask="url(&quot;#SvgjsMask1485&quot;)" fill="none"><rect width="1024" height="960" x="0" y="0" fill="url(&quot;#SvgjsLinearGradient1486&quot;)"></rect><use xlink:href="#SvgjsSymbol1493" x="0" y="0"></use><use xlink:href="#SvgjsSymbol1493" x="0" y="720"></use><use xlink:href="#SvgjsSymbol1493" x="720" y="0"></use><use xlink:href="#SvgjsSymbol1493" x="720" y="720"></use></g><defs><mask id="SvgjsMask1485"><rect width="1024" height="960" fill="#ffffff"></rect></mask><linearGradient x1="50%" y1="100%" x2="50%" y2="0%" gradientUnits="userSpaceOnUse" id="SvgjsLinearGradient1486"><stop stop-color="#0e2a47" offset="0"></stop><stop stop-color="rgba(55, 106, 95, 1)" offset="1"></stop></linearGradient><path d="M-1 0 a1 1 0 1 0 2 0 a1 1 0 1 0 -2 0z" id="SvgjsPath1490"></path><path d="M-3 0 a3 3 0 1 0 6 0 a3 3 0 1 0 -6 0z" id="SvgjsPath1487"></path><path d="M-5 0 a5 5 0 1 0 10 0 a5 5 0 1 0 -10 0z" id="SvgjsPath1489"></path><path d="M2 -2 L-2 2z" id="SvgjsPath1488"></path><path d="M6 -6 L-6 6z" id="SvgjsPath1491"></path><path d="M30 -30 L-30 30z" id="SvgjsPath1492"></path></defs><symbol id="SvgjsSymbol1493"><use xlink:href="#SvgjsPath1487" x="30" y="30" stroke="rgba(137, 191, 175, 1)"></use><use xlink:href="#SvgjsPath1488" x="30" y="90" stroke="rgba(137, 191, 175, 1)"></use><use xlink:href="#SvgjsPath1489" x="30" y="150" stroke="rgba(137, 191, 175, 1)"></use><use xlink:href="#SvgjsPath1489" x="30" y="210" stroke="rgba(137, 191, 175, 1)"></use><use xlink:href="#SvgjsPath1488" x="30" y="270" stroke="rgba(137, 191, 175, 1)"></use><use xlink:href="#SvgjsPath1489" x="30" y="330" stroke="rgba(137, 191, 175, 1)"></use><use xlink:href="#SvgjsPath1489" x="30" y="390" stroke="rgba(137, 191, 175, 1)"></use><use xlink:href="#SvgjsPath1489" x="30" y="450" stroke="rgba(137, 191, 175, 1)"></use><use xlink:href="#SvgjsPath1490" x="30" y="510" stroke="rgba(137, 191, 175, 1)"></use><use xlink:href="#SvgjsPath1489" x="30" y="570" stroke="rgba(137, 191, 175, 1)"></use><use xlink:href="#SvgjsPath1487" x="30" y="630" stroke="rgba(137, 191, 175, 1)"></use><use xlink:href="#SvgjsPath1491" x="30" y="690" stroke="rgba(137, 191, 175, 1)"></use><use xlink:href="#SvgjsPath1491" x="90" y="30" stroke="rgba(137, 191, 175, 1)"></use><use xlink:href="#SvgjsPath1492" x="90" y="90" stroke="rgba(137, 191, 175, 1)" stroke-width="3"></use><use xlink:href="#SvgjsPath1491" x="90" y="150" stroke="rgba(137, 191, 175, 1)"></use><use xlink:href="#SvgjsPath1491" x="90" y="210" stroke="rgba(137, 191, 175, 1)"></use><use xlink:href="#SvgjsPath1488" x="90" y="270" stroke="rgba(137, 191, 175, 1)"></use><use xlink:href="#SvgjsPath1488" x="90" y="330" stroke="rgba(137, 191, 175, 1)"></use><use xlink:href="#SvgjsPath1489" x="90" y="390" stroke="rgba(137, 191, 175, 1)"></use><use xlink:href="#SvgjsPath1491" x="90" y="450" stroke="rgba(137, 191, 175, 1)"></use><use xlink:href="#SvgjsPath1491" x="90" y="510" stroke="rgba(137, 191, 175, 1)"></use><use xlink:href="#SvgjsPath1488" x="90" y="570" stroke="rgba(137, 191, 175, 1)"></use><use xlink:href="#SvgjsPath1489" x="90" y="630" stroke="rgba(137, 191, 175, 1)"></use><use xlink:href="#SvgjsPath1488" x="90" y="690" stroke="rgba(137, 191, 175, 1)"></use><use xlink:href="#SvgjsPath1489" x="150" y="30" stroke="rgba(137, 191, 175, 1)"></use><use xlink:href="#SvgjsPath1492" x="150" y="90" stroke="rgba(137, 191, 175, 1)" stroke-width="3"></use><use xlink:href="#SvgjsPath1488" x="150" y="150" stroke="rgba(137, 191, 175, 1)"></use><use xlink:href="#SvgjsPath1489" x="150" y="210" stroke="rgba(137, 191, 175, 1)"></use><use xlink:href="#SvgjsPath1491" x="150" y="270" stroke="rgba(137, 191, 175, 1)"></use><use xlink:href="#SvgjsPath1491" x="150" y="330" stroke="rgba(137, 191, 175, 1)"></use><use xlink:href="#SvgjsPath1489" x="150" y="390" stroke="rgba(137, 191, 175, 1)"></use><use xlink:href="#SvgjsPath1489" x="150" y="450" stroke="rgba(137, 191, 175, 1)"></use><use xlink:href="#SvgjsPath1488" x="150" y="510" stroke="rgba(137, 191, 175, 1)"></use><use xlink:href="#SvgjsPath1487" x="150" y="570" stroke="rgba(137, 191, 175, 1)"></use><use xlink:href="#SvgjsPath1491" x="150" y="630" stroke="rgba(137, 191, 175, 1)"></use><use xlink:href="#SvgjsPath1488" x="150" y="690" stroke="rgba(137, 191, 175, 1)"></use><use xlink:href="#SvgjsPath1488" x="210" y="30" stroke="rgba(137, 191, 175, 1)"></use><use xlink:href="#SvgjsPath1491" x="210" y="90" stroke="rgba(137, 191, 175, 1)"></use><use xlink:href="#SvgjsPath1488" x="210" y="150" stroke="rgba(137, 191, 175, 1)"></use><use xlink:href="#SvgjsPath1489" x="210" y="210" stroke="rgba(137, 191, 175, 1)"></use><use xlink:href="#SvgjsPath1489" x="210" y="270" stroke="rgba(137, 191, 175, 1)"></use><use xlink:href="#SvgjsPath1488" x="210" y="330" stroke="rgba(137, 191, 175, 1)"></use><use xlink:href="#SvgjsPath1490" x="210" y="390" stroke="rgba(137, 191, 175, 1)"></use><use xlink:href="#SvgjsPath1489" x="210" y="450" stroke="rgba(137, 191, 175, 1)"></use><use xlink:href="#SvgjsPath1491" x="210" y="510" stroke="rgba(137, 191, 175, 1)"></use><use xlink:href="#SvgjsPath1491" x="210" y="570" stroke="rgba(137, 191, 175, 1)"></use><use xlink:href="#SvgjsPath1492" x="210" y="630" stroke="rgba(137, 191, 175, 1)" stroke-width="3"></use><use xlink:href="#SvgjsPath1489" x="210" y="690" stroke="rgba(137, 191, 175, 1)"></use><use xlink:href="#SvgjsPath1489" x="270" y="30" stroke="rgba(137, 191, 175, 1)"></use><use xlink:href="#SvgjsPath1491" x="270" y="90" stroke="rgba(137, 191, 175, 1)"></use><use xlink:href="#SvgjsPath1489" x="270" y="150" stroke="rgba(137, 191, 175, 1)"></use><use xlink:href="#SvgjsPath1491" x="270" y="210" stroke="rgba(137, 191, 175, 1)"></use><use xlink:href="#SvgjsPath1488" x="270" y="270" stroke="rgba(137, 191, 175, 1)"></use><use xlink:href="#SvgjsPath1490" x="270" y="330" stroke="rgba(137, 191, 175, 1)"></use><use xlink:href="#SvgjsPath1492" x="270" y="390" stroke="rgba(137, 191, 175, 1)" stroke-width="3"></use><use xlink:href="#SvgjsPath1491" x="270" y="450" stroke="rgba(137, 191, 175, 1)"></use><use xlink:href="#SvgjsPath1491" x="270" y="510" stroke="rgba(137, 191, 175, 1)"></use><use xlink:href="#SvgjsPath1491" x="270" y="570" stroke="rgba(137, 191, 175, 1)"></use><use xlink:href="#SvgjsPath1488" x="270" y="630" stroke="rgba(137, 191, 175, 1)"></use><use xlink:href="#SvgjsPath1488" x="270" y="690" stroke="rgba(137, 191, 175, 1)"></use><use xlink:href="#SvgjsPath1491" x="330" y="30" stroke="rgba(137, 191, 175, 1)"></use><use xlink:href="#SvgjsPath1492" x="330" y="90" stroke="rgba(137, 191, 175, 1)" stroke-width="3"></use><use xlink:href="#SvgjsPath1487" x="330" y="150" stroke="rgba(137, 191, 175, 1)"></use><use xlink:href="#SvgjsPath1488" x="330" y="210" stroke="rgba(137, 191, 175, 1)"></use><use xlink:href="#SvgjsPath1491" x="330" y="270" stroke="rgba(137, 191, 175, 1)"></use><use xlink:href="#SvgjsPath1487" x="330" y="330" stroke="rgba(137, 191, 175, 1)"></use><use xlink:href="#SvgjsPath1491" x="330" y="390" stroke="rgba(137, 191, 175, 1)"></use><use xlink:href="#SvgjsPath1491" x="330" y="450" stroke="rgba(137, 191, 175, 1)"></use><use xlink:href="#SvgjsPath1488" x="330" y="510" stroke="rgba(137, 191, 175, 1)"></use><use xlink:href="#SvgjsPath1489" x="330" y="570" stroke="rgba(137, 191, 175, 1)"></use><use xlink:href="#SvgjsPath1491" x="330" y="630" stroke="rgba(137, 191, 175, 1)"></use><use xlink:href="#SvgjsPath1487" x="330" y="690" stroke="rgba(137, 191, 175, 1)"></use><use xlink:href="#SvgjsPath1491" x="390" y="30" stroke="rgba(137, 191, 175, 1)"></use><use xlink:href="#SvgjsPath1490" x="390" y="90" stroke="rgba(137, 191, 175, 1)"></use><use xlink:href="#SvgjsPath1491" x="390" y="150" stroke="rgba(137, 191, 175, 1)"></use><use xlink:href="#SvgjsPath1491" x="390" y="210" stroke="rgba(137, 191, 175, 1)"></use><use xlink:href="#SvgjsPath1490" x="390" y="270" stroke="rgba(137, 191, 175, 1)"></use><use xlink:href="#SvgjsPath1488" x="390" y="330" stroke="rgba(137, 191, 175, 1)"></use><use xlink:href="#SvgjsPath1491" x="390" y="390" stroke="rgba(137, 191, 175, 1)"></use><use xlink:href="#SvgjsPath1491" x="390" y="450" stroke="rgba(137, 191, 175, 1)"></use><use xlink:href="#SvgjsPath1491" x="390" y="510" stroke="rgba(137, 191, 175, 1)"></use><use xlink:href="#SvgjsPath1488" x="390" y="570" stroke="rgba(137, 191, 175, 1)"></use><use xlink:href="#SvgjsPath1491" x="390" y="630" stroke="rgba(137, 191, 175, 1)"></use><use xlink:href="#SvgjsPath1489" x="390" y="690" stroke="rgba(137, 191, 175, 1)"></use><use xlink:href="#SvgjsPath1488" x="450" y="30" stroke="rgba(137, 191, 175, 1)"></use><use xlink:href="#SvgjsPath1492" x="450" y="90" stroke="rgba(137, 191, 175, 1)" stroke-width="3"></use><use xlink:href="#SvgjsPath1492" x="450" y="150" stroke="rgba(137, 191, 175, 1)" stroke-width="3"></use><use xlink:href="#SvgjsPath1489" x="450" y="210" stroke="rgba(137, 191, 175, 1)"></use><use xlink:href="#SvgjsPath1491" x="450" y="270" stroke="rgba(137, 191, 175, 1)"></use><use xlink:href="#SvgjsPath1492" x="450" y="330" stroke="rgba(137, 191, 175, 1)" stroke-width="3"></use><use xlink:href="#SvgjsPath1487" x="450" y="390" stroke="rgba(137, 191, 175, 1)"></use><use xlink:href="#SvgjsPath1491" x="450" y="450" stroke="rgba(137, 191, 175, 1)"></use><use xlink:href="#SvgjsPath1488" x="450" y="510" stroke="rgba(137, 191, 175, 1)"></use><use xlink:href="#SvgjsPath1491" x="450" y="570" stroke="rgba(137, 191, 175, 1)"></use><use xlink:href="#SvgjsPath1489" x="450" y="630" stroke="rgba(137, 191, 175, 1)"></use><use xlink:href="#SvgjsPath1491" x="450" y="690" stroke="rgba(137, 191, 175, 1)"></use><use xlink:href="#SvgjsPath1491" x="510" y="30" stroke="rgba(137, 191, 175, 1)"></use><use xlink:href="#SvgjsPath1491" x="510" y="90" stroke="rgba(137, 191, 175, 1)"></use><use xlink:href="#SvgjsPath1489" x="510" y="150" stroke="rgba(137, 191, 175, 1)"></use><use xlink:href="#SvgjsPath1489" x="510" y="210" stroke="rgba(137, 191, 175, 1)"></use><use xlink:href="#SvgjsPath1490" x="510" y="270" stroke="rgba(137, 191, 175, 1)"></use><use xlink:href="#SvgjsPath1491" x="510" y="330" stroke="rgba(137, 191, 175, 1)"></use><use xlink:href="#SvgjsPath1487" x="510" y="390" stroke="rgba(137, 191, 175, 1)"></use><use xlink:href="#SvgjsPath1491" x="510" y="450" stroke="rgba(137, 191, 175, 1)"></use><use xlink:href="#SvgjsPath1492" x="510" y="510" stroke="rgba(137, 191, 175, 1)" stroke-width="3"></use><use xlink:href="#SvgjsPath1489" x="510" y="570" stroke="rgba(137, 191, 175, 1)"></use><use xlink:href="#SvgjsPath1491" x="510" y="630" stroke="rgba(137, 191, 175, 1)"></use><use xlink:href="#SvgjsPath1491" x="510" y="690" stroke="rgba(137, 191, 175, 1)"></use><use xlink:href="#SvgjsPath1491" x="570" y="30" stroke="rgba(137, 191, 175, 1)"></use><use xlink:href="#SvgjsPath1489" x="570" y="90" stroke="rgba(137, 191, 175, 1)"></use><use xlink:href="#SvgjsPath1491" x="570" y="150" stroke="rgba(137, 191, 175, 1)"></use><use xlink:href="#SvgjsPath1489" x="570" y="210" stroke="rgba(137, 191, 175, 1)"></use><use xlink:href="#SvgjsPath1492" x="570" y="270" stroke="rgba(137, 191, 175, 1)" stroke-width="3"></use><use xlink:href="#SvgjsPath1491" x="570" y="330" stroke="rgba(137, 191, 175, 1)"></use><use xlink:href="#SvgjsPath1491" x="570" y="390" stroke="rgba(137, 191, 175, 1)"></use><use xlink:href="#SvgjsPath1491" x="570" y="450" stroke="rgba(137, 191, 175, 1)"></use><use xlink:href="#SvgjsPath1490" x="570" y="510" stroke="rgba(137, 191, 175, 1)"></use><use xlink:href="#SvgjsPath1491" x="570" y="570" stroke="rgba(137, 191, 175, 1)"></use><use xlink:href="#SvgjsPath1487" x="570" y="630" stroke="rgba(137, 191, 175, 1)"></use><use xlink:href="#SvgjsPath1489" x="570" y="690" stroke="rgba(137, 191, 175, 1)"></use><use xlink:href="#SvgjsPath1491" x="630" y="30" stroke="rgba(137, 191, 175, 1)"></use><use xlink:href="#SvgjsPath1491" x="630" y="90" stroke="rgba(137, 191, 175, 1)"></use><use xlink:href="#SvgjsPath1487" x="630" y="150" stroke="rgba(137, 191, 175, 1)"></use><use xlink:href="#SvgjsPath1492" x="630" y="210" stroke="rgba(137, 191, 175, 1)" stroke-width="3"></use><use xlink:href="#SvgjsPath1491" x="630" y="270" stroke="rgba(137, 191, 175, 1)"></use><use xlink:href="#SvgjsPath1491" x="630" y="330" stroke="rgba(137, 191, 175, 1)"></use><use xlink:href="#SvgjsPath1489" x="630" y="390" stroke="rgba(137, 191, 175, 1)"></use><use xlink:href="#SvgjsPath1491" x="630" y="450" stroke="rgba(137, 191, 175, 1)"></use><use xlink:href="#SvgjsPath1489" x="630" y="510" stroke="rgba(137, 191, 175, 1)"></use><use xlink:href="#SvgjsPath1491" x="630" y="570" stroke="rgba(137, 191, 175, 1)"></use><use xlink:href="#SvgjsPath1487" x="630" y="630" stroke="rgba(137, 191, 175, 1)"></use><use xlink:href="#SvgjsPath1489" x="630" y="690" stroke="rgba(137, 191, 175, 1)"></use><use xlink:href="#SvgjsPath1487" x="690" y="30" stroke="rgba(137, 191, 175, 1)"></use><use xlink:href="#SvgjsPath1487" x="690" y="90" stroke="rgba(137, 191, 175, 1)"></use><use xlink:href="#SvgjsPath1487" x="690" y="150" stroke="rgba(137, 191, 175, 1)"></use><use xlink:href="#SvgjsPath1491" x="690" y="210" stroke="rgba(137, 191, 175, 1)"></use><use xlink:href="#SvgjsPath1489" x="690" y="270" stroke="rgba(137, 191, 175, 1)"></use><use xlink:href="#SvgjsPath1491" x="690" y="330" stroke="rgba(137, 191, 175, 1)"></use><use xlink:href="#SvgjsPath1488" x="690" y="390" stroke="rgba(137, 191, 175, 1)"></use><use xlink:href="#SvgjsPath1491" x="690" y="450" stroke="rgba(137, 191, 175, 1)"></use><use xlink:href="#SvgjsPath1491" x="690" y="510" stroke="rgba(137, 191, 175, 1)"></use><use xlink:href="#SvgjsPath1491" x="690" y="570" stroke="rgba(137, 191, 175, 1)"></use><use xlink:href="#SvgjsPath1489" x="690" y="630" stroke="rgba(137, 191, 175, 1)"></use><use xlink:href="#SvgjsPath1491" x="690" y="690" stroke="rgba(137, 191, 175, 1)"></use></symbol></svg>